# xmcd
# 
# Track frame offsets:
#     151
#     11649
#     107843
# 
# Disc length: 2385
# 
# Revision: 2
# Processed by: cddbd v1.5.2PL0 Copyright (c) Steve Scherf et al.
# Submitted via: BonkEnc v1.0.8
# 
DISCID=1c094f03
DTITLE=Miles Davis - [1975.01.22] Another Unity - Tokyo
DYEAR=1975
DGENRE=Contemporary Jazz
TTITLE0=Band Warming Up
TTITLE1=Prelude
TTITLE2=Maiysha
EXTD=
EXTT0=
EXTT1=
EXTT2=
PLAYORDER=
